name pl06_filtered_grf.mot
datacolumns 37
datarows 15
range 1.456000 1.463000
endheader
time	1_ground_force_vx	1_ground_force_vy	1_ground_force_vz	1_ground_force_px	1_ground_force_py	1_ground_force_pz	1_ground_torque_x	1_ground_torque_y	1_ground_torque_z	2_ground_force_vx	2_ground_force_vy	2_ground_force_vz	2_ground_force_px	2_ground_force_py	2_ground_force_pz	2_ground_torque_x	2_ground_torque_y	2_ground_torque_z	3_ground_force_vx	3_ground_force_vy	3_ground_force_vz	3_ground_force_px	3_ground_force_py	3_ground_force_pz	3_ground_torque_x	3_ground_torque_y	3_ground_torque_z	4_ground_force_vx	4_ground_force_vy	4_ground_force_vz	4_ground_force_px	4_ground_force_py	4_ground_force_pz	4_ground_torque_x	4_ground_torque_y	4_ground_torque_z
            1.456000	          -48.937957	          389.325291	           27.836331	            0.157669	            0.000000	            0.179791	           -1.114293	            8.864747	            0.633820	           36.259676	          416.162033	            5.463407	           -0.167774	            0.000000	            0.219925	            0.582858	            6.689612	            0.087822	            0.410264	           -0.926379	           -0.812949	            0.413440	            1.262715	            1.873223	            0.037871	            0.022551	            0.016930	           -1.707419	           -1.720521	           -1.941728	           -0.353248	            1.255785	            1.900375	            0.029612	           -0.049644	            0.039797
            1.456500	          -48.848513	          389.176132	           27.737156	            0.157658	            0.000000	            0.179779	           -1.113603	            8.872072	            0.632326	           36.240726	          415.877072	            5.566840	           -0.167753	            0.000000	            0.219840	            0.584201	            6.703944	            0.089738	            0.404842	           -0.927720	           -0.825918	            0.413440	            1.262715	            1.873232	            0.037720	            0.022499	            0.016816	           -1.704526	           -1.715159	           -1.951238	           -0.353246	            1.255785	            1.900382	            0.029541	           -0.049588	            0.039651
            1.457000	          -48.756784	          389.021047	           27.640121	            0.157647	            0.000000	            0.179765	           -1.112878	            8.879444	            0.630889	           36.223217	          415.588771	            5.671098	           -0.167733	            0.000000	            0.219756	            0.585603	            6.718625	            0.091682	            0.398943	           -0.928824	           -0.837890	            0.413440	            1.262716	            1.873241	            0.037568	            0.022436	            0.016721	           -1.700827	           -1.709797	           -1.960399	           -0.353245	            1.255785	            1.900390	            0.029476	           -0.049511	            0.039508
            1.457500	          -48.662808	          388.859886	           27.545221	            0.157635	            0.000000	            0.179751	           -1.112121	            8.886854	            0.629508	           36.207183	          415.297323	            5.776145	           -0.167713	            0.000000	            0.219672	            0.587065	            6.733654	            0.093655	            0.392567	           -0.929715	           -0.848825	            0.413440	            1.262717	            1.873250	            0.037416	            0.022361	            0.016646	           -1.696339	           -1.704436	           -1.969195	           -0.353244	            1.255786	            1.900397	            0.029416	           -0.049412	            0.039368
            1.458000	          -48.566629	          388.692503	           27.452451	            0.157622	            0.000000	            0.179735	           -1.111330	            8.894291	            0.628183	           36.192647	          415.002924	            5.881942	           -0.167692	            0.000000	            0.219588	            0.588587	            6.749029	            0.095656	            0.385709	           -0.930410	           -0.858693	            0.413440	            1.262718	            1.873259	            0.037262	            0.022274	            0.016589	           -1.691078	           -1.699085	           -1.977614	           -0.353243	            1.255787	            1.900406	            0.029362	           -0.049290	            0.039232
            1.458500	          -48.468289	          388.518751	           27.361805	            0.157609	            0.000000	            0.179717	           -1.110506	            8.901744	            0.626914	           36.179630	          414.705771	            5.988452	           -0.167673	            0.000000	            0.219505	            0.590168	            6.764748	            0.097685	            0.378375	           -0.930930	           -0.867463	            0.413439	            1.262720	            1.873269	            0.037108	            0.022175	            0.016552	           -1.685074	           -1.693737	           -1.985648	           -0.353242	            1.255788	            1.900414	            0.029314	           -0.049145	            0.039099
            1.459000	          -48.367838	          388.338488	           27.273280	            0.157595	            0.000000	            0.179699	           -1.109648	            8.909202	            0.625699	           36.168147	          414.406060	            6.095637	           -0.167653	            0.000000	            0.219422	            0.591809	            6.780806	            0.099741	            0.370568	           -0.931290	           -0.875109	            0.413439	            1.262721	            1.873278	            0.036955	            0.022063	            0.016535	           -1.678353	           -1.688393	           -1.993291	           -0.353242	            1.255789	            1.900423	            0.029273	           -0.048976	            0.038971
            1.459500	          -48.265325	          388.151573	           27.186873	            0.157580	            0.000000	            0.179679	           -1.108756	            8.916656	            0.624540	           36.158207	          414.103991	            6.203458	           -0.167634	            0.000000	            0.219340	            0.593509	            6.797199	            0.101825	            0.362290	           -0.931504	           -0.881613	            0.413438	            1.262722	            1.873287	            0.036801	            0.021938	            0.016537	           -1.670944	           -1.683053	           -2.000543	           -0.353241	            1.255791	            1.900432	            0.029239	           -0.048783	            0.038848
            1.460000	          -48.160802	          387.957870	           27.102580	            0.157566	            0.000000	            0.179658	           -1.107831	            8.924095	            0.623434	           36.149815	          413.799760	            6.311877	           -0.167615	            0.000000	            0.219258	            0.595269	            6.813921	            0.103936	            0.353545	           -0.931586	           -0.886961	            0.413438	            1.262723	            1.873297	            0.036648	            0.021799	            0.016559	           -1.662877	           -1.677718	           -2.007405	           -0.353240	            1.255792	            1.900440	            0.029212	           -0.048564	            0.038729
            1.460500	          -48.054325	          387.757245	           27.020399	            0.157550	            0.000000	            0.179636	           -1.106872	            8.931509	            0.622382	           36.142970	          413.493565	            6.420854	           -0.167597	            0.000000	            0.219177	            0.597086	            6.830966	            0.106073	            0.344329	           -0.931544	           -0.891148	            0.413437	            1.262725	            1.873307	            0.036496	            0.021647	            0.016600	           -1.654168	           -1.672396	           -2.013889	           -0.353240	            1.255794	            1.900450	            0.029192	           -0.048321	            0.038615
            1.461000	          -47.945951	          387.549567	           26.940328	            0.157534	            0.000000	            0.179613	           -1.105880	            8.938888	            0.621383	           36.137666	          413.185601	            6.530348	           -0.167578	            0.000000	            0.219097	            0.598962	            6.848326	            0.108237	            0.334658	           -0.931384	           -0.894167	            0.413436	            1.262726	            1.873316	            0.036345	            0.021480	            0.016660	           -1.644866	           -1.667081	           -2.020001	           -0.353240	            1.255796	            1.900460	            0.029179	           -0.048052	            0.038506
            1.461500	          -47.835742	          387.334710	           26.862364	            0.157518	            0.000000	            0.179589	           -1.104856	            8.946221	            0.620437	           36.133892	          412.876062	            6.640317	           -0.167560	            0.000000	            0.219017	            0.600895	            6.865992	            0.110426	            0.324539	           -0.931113	           -0.896021	            0.413435	            1.262728	            1.873326	            0.036195	            0.021299	            0.016740	           -1.635003	           -1.661772	           -2.025755	           -0.353240	            1.255798	            1.900470	            0.029173	           -0.047758	            0.038403
            1.462000	          -47.723761	          387.112552	           26.786504	            0.157502	            0.000000	            0.179563	           -1.103799	            8.953497	            0.619543	           36.131636	          412.565140	            6.750720	           -0.167543	            0.000000	            0.218938	            0.602883	            6.883955	            0.112641	            0.313983	           -0.930730	           -0.896718	            0.413434	            1.262729	            1.873336	            0.036047	            0.021102	            0.016838	           -1.624617	           -1.656473	           -2.031169	           -0.353240	            1.255800	            1.900480	            0.029174	           -0.047439	            0.038305
            1.462500	          -47.610073	          386.882974	           26.712747	            0.157484	            0.000000	            0.179537	           -1.102711	            8.960707	            0.618702	           36.130877	          412.253023	            6.861511	           -0.167526	            0.000000	            0.218859	            0.604926	            6.902204	            0.114880	            0.303001	           -0.930236	           -0.896272	            0.413434	            1.262731	            1.873346	            0.035900	            0.020890	            0.016955	           -1.613742	           -1.651183	           -2.036264	           -0.353240	            1.255803	            1.900490	            0.029182	           -0.047094	            0.038212
            1.463000	          -47.494749	          386.645862	           26.641089	            0.157467	            0.000000	            0.179510	           -1.101590	            8.967840	            0.617912	           36.131593	          411.939898	            6.972647	           -0.167509	            0.000000	            0.218782	            0.607023	            6.920729	            0.117143	            0.291600	           -0.929626	           -0.894704	            0.413432	            1.262733	            1.873356	            0.035756	            0.020661	            0.017090	           -1.602399	           -1.645911	           -2.041074	           -0.353240	            1.255806	            1.900501	            0.029197	           -0.046725	            0.038126
